<svg width="45" height="40" viewBox="0 0 45 40" fill="none" xmlns="http://www.w3.org/2000/svg">
<path d="M20.5384 36.4355C29.5046 36.4355 36.7732 29.1669 36.7732 20.2007C36.7732 11.2344 29.5046 3.96582 20.5384 3.96582C11.5721 3.96582 4.30354 11.2344 4.30354 20.2007C4.30354 29.1669 11.5721 36.4355 20.5384 36.4355Z" fill="white"/>
<path d="M19.5808 7.26763C19.6818 7.26763 19.7637 7.18575 19.7637 7.08474C19.7637 6.98374 19.6818 6.90186 19.5808 6.90186C19.4798 6.90186 19.3979 6.98374 19.3979 7.08474C19.3979 7.18575 19.4798 7.26763 19.5808 7.26763Z" fill="black"/>
<path d="M21.4491 7.5108C21.5501 7.5108 21.632 7.42892 21.632 7.32791C21.632 7.2269 21.5501 7.14502 21.4491 7.14502C21.3481 7.14502 21.2662 7.2269 21.2662 7.32791C21.2662 7.42892 21.3481 7.5108 21.4491 7.5108Z" fill="black"/>
<path d="M23.9003 10.8106C24.0013 10.8106 24.0832 10.7287 24.0832 10.6277C24.0832 10.5267 24.0013 10.4448 23.9003 10.4448C23.7993 10.4448 23.7174 10.5267 23.7174 10.6277C23.7174 10.7287 23.7993 10.8106 23.9003 10.8106Z" fill="black"/>
<path d="M10.4561 27.7979C10.5571 27.7979 10.639 27.716 10.639 27.615C10.639 27.514 10.5571 27.4321 10.4561 27.4321C10.3551 27.4321 10.2732 27.514 10.2732 27.615C10.2732 27.716 10.3551 27.7979 10.4561 27.7979Z" fill="black"/>
<path d="M10.9293 29.254C11.0303 29.254 11.1122 29.1721 11.1122 29.0711C11.1122 28.9701 11.0303 28.8882 10.9293 28.8882C10.8283 28.8882 10.7464 28.9701 10.7464 29.0711C10.7464 29.1721 10.8283 29.254 10.9293 29.254Z" fill="black"/>
<path d="M8.67224 27.9701C8.74785 27.9701 8.80915 27.9088 8.80915 27.8332C8.80915 27.7576 8.74785 27.6963 8.67224 27.6963C8.59662 27.6963 8.53532 27.7576 8.53532 27.8332C8.53532 27.9088 8.59662 27.9701 8.67224 27.9701Z" fill="black"/>
<path d="M16.0737 30.8308C16.1496 30.8308 16.211 30.7693 16.211 30.6935C16.211 30.6176 16.1496 30.5562 16.0737 30.5562C15.9979 30.5562 15.9364 30.6176 15.9364 30.6935C15.9364 30.7693 15.9979 30.8308 16.0737 30.8308Z" fill="black"/>
<path d="M27.6824 28.4193C27.758 28.4193 27.8193 28.358 27.8193 28.2824C27.8193 28.2068 27.758 28.1455 27.6824 28.1455C27.6068 28.1455 27.5455 28.2068 27.5455 28.2824C27.5455 28.358 27.6068 28.4193 27.6824 28.4193Z" fill="black"/>
<path d="M31.0559 24.7551C31.1318 24.7551 31.1933 24.6936 31.1933 24.6178C31.1933 24.5419 31.1318 24.4805 31.0559 24.4805C30.9801 24.4805 30.9186 24.5419 30.9186 24.6178C30.9186 24.6936 30.9801 24.7551 31.0559 24.7551Z" fill="black"/>
<path d="M14.5209 11.829C14.5965 11.829 14.6578 11.7677 14.6578 11.6921C14.6578 11.6165 14.5965 11.5552 14.5209 11.5552C14.4453 11.5552 14.384 11.6165 14.384 11.6921C14.384 11.7677 14.4453 11.829 14.5209 11.829Z" fill="black"/>
<path d="M18.2337 9.10195C18.3093 9.10195 18.3706 9.04065 18.3706 8.96504C18.3706 8.88942 18.3093 8.82812 18.2337 8.82812C18.1581 8.82812 18.0968 8.88942 18.0968 8.96504C18.0968 9.04065 18.1581 9.10195 18.2337 9.10195Z" fill="black"/>
<path d="M17.8302 8.83535C17.9058 8.83535 17.9671 8.77405 17.9671 8.69843C17.9671 8.62282 17.9058 8.56152 17.8302 8.56152C17.7546 8.56152 17.6933 8.62282 17.6933 8.69843C17.6933 8.77405 17.7546 8.83535 17.8302 8.83535Z" fill="black"/>
<path d="M17.4666 8.56826C17.5423 8.56826 17.6036 8.50696 17.6036 8.43135C17.6036 8.35573 17.5423 8.29443 17.4666 8.29443C17.391 8.29443 17.3297 8.35573 17.3297 8.43135C17.3297 8.50696 17.391 8.56826 17.4666 8.56826Z" fill="black"/>
<path d="M15.1032 12.5331C15.1788 12.5331 15.2401 12.4718 15.2401 12.3962C15.2401 12.3206 15.1788 12.2593 15.1032 12.2593C15.0276 12.2593 14.9663 12.3206 14.9663 12.3962C14.9663 12.4718 15.0276 12.5331 15.1032 12.5331Z" fill="black"/>
<path d="M20.5721 5.43789C20.6477 5.43789 20.709 5.37659 20.709 5.30098C20.709 5.22536 20.6477 5.16406 20.5721 5.16406C20.4965 5.16406 20.4352 5.22536 20.4352 5.30098C20.4352 5.37659 20.4965 5.43789 20.5721 5.43789Z" fill="black"/>
<path d="M21.4703 9.36904C21.5459 9.36904 21.6072 9.30774 21.6072 9.23213C21.6072 9.15651 21.5459 9.09521 21.4703 9.09521C21.3947 9.09521 21.3334 9.15651 21.3334 9.23213C21.3334 9.30774 21.3947 9.36904 21.4703 9.36904Z" fill="black"/>
<path d="M20.0538 8.60146C20.1294 8.60146 20.1907 8.54016 20.1907 8.46455C20.1907 8.38893 20.1294 8.32764 20.0538 8.32764C19.9782 8.32764 19.9169 8.38893 19.9169 8.46455C19.9169 8.54016 19.9782 8.60146 20.0538 8.60146Z" fill="black"/>
<path d="M17.6271 9.64541C17.7027 9.64541 17.764 9.58411 17.764 9.50849C17.764 9.43288 17.7027 9.37158 17.6271 9.37158C17.5514 9.37158 17.4901 9.43288 17.4901 9.50849C17.4901 9.58411 17.5514 9.64541 17.6271 9.64541Z" fill="black"/>
<path d="M28.3286 32.0199C28.4043 32.0199 28.4656 31.9586 28.4656 31.883C28.4656 31.8074 28.4043 31.7461 28.3286 31.7461C28.253 31.7461 28.1917 31.8074 28.1917 31.883C28.1917 31.9586 28.253 32.0199 28.3286 32.0199Z" fill="black"/>
<path d="M10.2256 28.6745C10.3014 28.6745 10.3629 28.6131 10.3629 28.5372C10.3629 28.4614 10.3014 28.3999 10.2256 28.3999C10.1498 28.3999 10.0883 28.4614 10.0883 28.5372C10.0883 28.6131 10.1498 28.6745 10.2256 28.6745Z" fill="black"/>
<path d="M19.7138 30.4338C19.7897 30.4338 19.8511 30.3723 19.8511 30.2965C19.8511 30.2207 19.7897 30.1592 19.7138 30.1592C19.638 30.1592 19.5765 30.2207 19.5765 30.2965C19.5765 30.3723 19.638 30.4338 19.7138 30.4338Z" fill="black"/>
<path d="M13.049 28.5652C13.1249 28.5652 13.1864 28.5037 13.1864 28.4278C13.1864 28.352 13.1249 28.2905 13.049 28.2905C12.9732 28.2905 12.9117 28.352 12.9117 28.4278C12.9117 28.5037 12.9732 28.5652 13.049 28.5652Z" fill="black"/>
<path d="M14.2292 30.4914C14.3051 30.4914 14.3666 30.43 14.3666 30.3541C14.3666 30.2783 14.3051 30.2168 14.2292 30.2168C14.1534 30.2168 14.0919 30.2783 14.0919 30.3541C14.0919 30.43 14.1534 30.4914 14.2292 30.4914Z" fill="black"/>
<path d="M22.9174 29.2777C22.993 29.2777 23.0543 29.2164 23.0543 29.1408C23.0543 29.0652 22.993 29.0039 22.9174 29.0039C22.8417 29.0039 22.7804 29.0652 22.7804 29.1408C22.7804 29.2164 22.8417 29.2777 22.9174 29.2777Z" fill="black"/>
<path d="M27.7069 26.5746C27.7825 26.5746 27.8438 26.5133 27.8438 26.4377C27.8438 26.3621 27.7825 26.3008 27.7069 26.3008C27.6312 26.3008 27.5699 26.3621 27.5699 26.4377C27.5699 26.5133 27.6312 26.5746 27.7069 26.5746Z" fill="black"/>
<path d="M31.3382 28.2338C31.4138 28.2338 31.4751 28.1725 31.4751 28.0969C31.4751 28.0213 31.4138 27.96 31.3382 27.96C31.2626 27.96 31.2013 28.0213 31.2013 28.0969C31.2013 28.1725 31.2626 28.2338 31.3382 28.2338Z" fill="black"/>
<path d="M32.5754 29.0258C32.651 29.0258 32.7123 28.9645 32.7123 28.8889C32.7123 28.8133 32.651 28.752 32.5754 28.752C32.4998 28.752 32.4385 28.8133 32.4385 28.8889C32.4385 28.9645 32.4998 29.0258 32.5754 29.0258Z" fill="black"/>
<path d="M32.7791 26.8661C32.8548 26.8661 32.9161 26.8048 32.9161 26.7292C32.9161 26.6536 32.8548 26.5923 32.7791 26.5923C32.7035 26.5923 32.6422 26.6536 32.6422 26.7292C32.6422 26.8048 32.7035 26.8661 32.7791 26.8661Z" fill="black"/>
<path d="M14.7239 23.808C14.7996 23.808 14.8609 23.7467 14.8609 23.6711C14.8609 23.5955 14.7996 23.5342 14.7239 23.5342C14.6483 23.5342 14.587 23.5955 14.587 23.6711C14.587 23.7467 14.6483 23.808 14.7239 23.808Z" fill="black"/>
<path d="M14.7756 26.9849C14.8766 26.9849 14.9585 26.903 14.9585 26.802C14.9585 26.701 14.8766 26.6191 14.7756 26.6191C14.6746 26.6191 14.5927 26.701 14.5927 26.802C14.5927 26.903 14.6746 26.9849 14.7756 26.9849Z" fill="black"/>
<path d="M15.868 29.2906C15.969 29.2906 16.0509 29.2087 16.0509 29.1077C16.0509 29.0067 15.969 28.9248 15.868 28.9248C15.767 28.9248 15.6851 29.0067 15.6851 29.1077C15.6851 29.2087 15.767 29.2906 15.868 29.2906Z" fill="black"/>
<path d="M28.948 26.8877C29.049 26.8877 29.1309 26.8059 29.1309 26.7049C29.1309 26.6039 29.049 26.522 28.948 26.522C28.847 26.522 28.7651 26.6039 28.7651 26.7049C28.7651 26.8059 28.847 26.8877 28.948 26.8877Z" fill="black"/>
<path d="M33.6555 26.6211C33.7565 26.6211 33.8384 26.5393 33.8384 26.4383C33.8384 26.3373 33.7565 26.2554 33.6555 26.2554C33.5545 26.2554 33.4726 26.3373 33.4726 26.4383C33.4726 26.5393 33.5545 26.6211 33.6555 26.6211Z" fill="black"/>
<path d="M31.3259 25.626C31.4269 25.626 31.5088 25.5442 31.5088 25.4431C31.5088 25.3421 31.4269 25.2603 31.3259 25.2603C31.2249 25.2603 31.143 25.3421 31.143 25.4431C31.143 25.5442 31.2249 25.626 31.3259 25.626Z" fill="black"/>
<path d="M28.948 25.7232C29.049 25.7232 29.1309 25.6413 29.1309 25.5403C29.1309 25.4393 29.049 25.3574 28.948 25.3574C28.847 25.3574 28.7651 25.4393 28.7651 25.5403C28.7651 25.6413 28.847 25.7232 28.948 25.7232Z" fill="black"/>
<path d="M24.0413 6.97005L24.4939 6.92678L24.0421 6.9013C24.0279 6.81393 23.958 6.74558 23.8698 6.73426L23.8265 6.28369L23.8006 6.7379C23.7189 6.7561 23.6562 6.82445 23.6461 6.90938L23.1834 6.95145L23.6494 6.97652C23.6663 7.05458 23.7294 7.11566 23.8087 7.13022L23.8508 7.59453L23.8755 7.13103C23.9592 7.11687 24.0255 7.05256 24.0413 6.97005Z" fill="black"/>
<path d="M16.4031 12.0086L16.8557 11.9654L16.4039 11.9399C16.3902 11.8525 16.3198 11.7842 16.2316 11.7728L16.1883 11.3223L16.1628 11.7765C16.0807 11.7947 16.0181 11.863 16.0079 11.948L15.5452 11.99L16.0112 12.0151C16.0282 12.0932 16.0913 12.1542 16.1705 12.1688L16.2126 12.6331L16.2377 12.1696C16.3214 12.1558 16.3877 12.0911 16.4031 12.0086Z" fill="black"/>
<path d="M33.3235 25.3304L33.776 25.2871L33.3243 25.2616C33.3105 25.1743 33.2401 25.1059 33.152 25.0946L33.1087 24.644L33.0832 25.0982C33.0015 25.1164 32.9388 25.1848 32.9287 25.2697L32.466 25.3118L32.9319 25.3369C32.9489 25.4149 33.012 25.476 33.0913 25.4906L33.1334 25.9549L33.1584 25.4914C33.2413 25.4776 33.3077 25.4133 33.3235 25.3304Z" fill="black"/>
<path d="M14.8739 32.2963L15.3265 32.253L14.8747 32.2276C14.8605 32.1402 14.7906 32.0718 14.7024 32.0605L14.6591 31.6104L14.6336 32.0642C14.5515 32.0824 14.4888 32.1507 14.4787 32.2356L14.016 32.2777L14.482 32.3028C14.4989 32.3808 14.562 32.4423 14.6413 32.4565L14.6834 32.9208L14.7085 32.4573C14.7918 32.4435 14.8585 32.3788 14.8739 32.2963Z" fill="black"/>
<path d="M31.8851 28.8988L32.3377 28.8555L31.886 28.83C31.8722 28.7426 31.8018 28.6743 31.7137 28.663L31.6704 28.2124L31.6449 28.6662C31.5632 28.6844 31.5005 28.7528 31.4904 28.8377L31.0277 28.8798L31.4936 28.9048C31.5106 28.9829 31.5737 29.044 31.653 29.0585L31.695 29.5228L31.7201 29.0593C31.803 29.046 31.8698 28.9813 31.8851 28.8988Z" fill="black"/>
<path d="M24.3884 16.3121C22.5008 17.0458 20.6597 17.7006 19.1062 18.1868C15.9494 19.1753 7.31229 21.8512 2.09482 25.2243L2.53163 25.3942C5.71065 23.5984 7.77701 23.0342 9.76329 22.4093C11.9231 21.7298 18.9052 20.0958 22.0668 19.206C23.135 18.9055 24.386 18.512 25.711 18.0331C25.4028 17.6032 25.0776 17.172 24.7354 16.7417C24.621 16.5965 24.5049 16.4533 24.3884 16.3121ZM26.6946 19.4908C26.2376 19.7994 25.8546 20.0457 25.5864 20.201C24.0333 21.0989 16.4615 26.2678 14.7389 27.4569C13.0163 28.646 8.23526 33.1597 6.82776 34.4702L6.77922 35.0037C11.3172 30.9267 12.7409 29.9213 14.5448 28.549C16.7774 26.8502 21.3958 23.7076 22.9655 22.7005C24.4661 21.7379 25.8194 20.8526 27.0339 20.0424C27.0141 20.0093 26.9943 19.9761 26.9745 19.9425C26.8831 19.7925 26.7897 19.642 26.6946 19.4908ZM33.7884 11.9986C31.5776 13.2945 28.0932 14.8585 24.7128 16.1856C24.7937 16.2846 24.8742 16.3845 24.9542 16.4853C25.332 16.9609 25.6883 17.4398 26.0236 17.9191C28.6809 16.9403 31.5966 15.6266 33.9101 14.0367C32.808 15.081 29.1642 17.8042 26.9425 19.3221C27.057 19.5086 27.1678 19.695 27.275 19.8807C30.6409 17.6282 32.9058 15.9704 34.2256 14.8618C36.0456 13.3329 40.1953 9.91123 41.7727 5.32471C39.0058 8.84388 35.7346 10.8577 33.7884 11.9986Z" fill="#7B7B7B"/>
<path d="M18.4492 24.2203C18.0912 23.7698 17.5962 23.1663 17.2245 22.6984C16.7274 22.0727 16.2676 21.4405 15.8461 20.8092C15.7086 20.8435 15.5715 20.8779 15.4344 20.9123C15.9432 21.7062 16.5082 22.499 17.1238 23.2739C17.5735 23.8401 17.9824 24.296 18.1919 24.5795C18.2344 24.6369 18.3185 24.7639 18.4322 24.933C18.5632 24.844 18.6955 24.7542 18.829 24.6636C18.6999 24.5233 18.5725 24.3756 18.4492 24.2203ZM21.062 26.5921C20.7679 26.3138 20.0549 25.8491 19.3127 25.1518C19.1489 25.2642 18.9835 25.3783 18.8176 25.4932C19.2969 26.1686 19.9497 26.9981 20.4609 27.24C21.231 27.6048 21.4385 26.9488 21.062 26.5921ZM24.954 16.4847C20.7105 11.1435 15.5266 8.20916 13.2916 9.98512C11.5556 11.3643 12.2683 15.3951 14.6611 19.6294C14.7848 19.5869 14.9074 19.5452 15.0287 19.504C12.6137 15.3785 11.9528 11.5447 13.5901 10.2436C15.6475 8.60876 20.6154 11.5544 24.736 16.7407C25.589 17.8142 26.3389 18.8916 26.9739 19.942C29.4055 23.9663 30.1517 27.6056 28.4716 29.0912C27.9575 29.5458 26.3866 29.7242 24.3288 28.798C24.3 28.834 24.3461 28.9314 24.3821 28.9553C26.1585 29.6696 27.8601 29.9418 28.7191 29.2594C30.7835 27.619 29.1976 21.826 24.954 16.4847Z" fill="black"/>
<path d="M6.75468 17.1187H9.47263L11.7538 20.9893C11.7538 20.9893 11.7538 18.1864 11.7538 17.968C11.7538 17.6283 11.323 17.1854 11.1713 17.1187C11.3533 17.1187 12.9429 17.1187 13.0521 17.1187C12.9368 17.149 12.5667 17.5979 12.5667 17.968C12.5667 18.15 12.5667 22.2148 12.5667 22.4089C12.5667 22.6819 12.9611 23.0581 13.1491 23.2037H10.5283L8.21072 19.3148C8.21072 19.3148 8.21072 22.2148 8.21072 22.3725C8.21072 22.6759 8.508 22.9671 8.81741 23.2158H6.81535C7.10049 23.0945 7.3735 22.7123 7.39777 22.4089C7.42204 22.1056 7.39777 18.1925 7.39777 18.0226C7.39777 17.6525 7.03983 17.3492 6.75468 17.1187Z" fill="black"/>
<path d="M31.6167 23.2037H35.2325C35.0323 23.1551 34.8078 22.9185 34.6865 22.6031C34.5651 22.2876 32.648 17.1187 32.648 17.1187H31.2733C30.8834 17.3993 30.4656 17.6954 30.0195 18.0072C30.0183 18.0186 30.017 18.0299 30.015 18.0408C29.9552 18.4048 28.8793 22.3013 28.8138 22.4939C28.7228 22.7608 28.2556 23.0581 28.0676 23.2158H30.015C29.8209 22.9974 29.6631 22.7851 29.6995 22.5424C29.7359 22.2997 29.8451 21.8144 29.8451 21.8144H31.8593C31.9503 22.0571 32.0183 22.2751 32.0535 22.4817C32.0959 22.7305 31.8411 23.0095 31.6167 23.2037ZM30.0272 21.0378L30.7066 18.8174L31.6045 21.0378H30.0272ZM29.721 17.3403C29.8209 17.2667 29.9212 17.1927 30.0211 17.1187H29.4933C29.5459 17.1672 29.6328 17.2436 29.721 17.3403Z" fill="black"/>
<path d="M15.8912 22.5424C15.9276 22.2997 16.0368 21.8144 16.0368 21.8144H18.051C18.142 22.0571 18.21 22.2751 18.2452 22.4817C18.2876 22.7305 18.0328 23.0095 17.8084 23.2037H20.9918C21.0582 23.1592 21.1241 23.1147 21.19 23.0706C21.0667 22.9614 20.953 22.7976 20.8782 22.6031C20.7568 22.2876 18.8397 17.1187 18.8397 17.1187H15.685C15.8366 17.2582 16.2735 17.6343 16.2067 18.0408C16.1473 18.4048 15.071 22.3013 15.0055 22.4939C14.9145 22.7608 14.4473 23.0581 14.2593 23.2158H16.2067C16.0126 22.9974 15.8548 22.7851 15.8912 22.5424ZM16.8983 18.8174L17.7962 21.0378H16.2189L16.8983 18.8174Z" fill="black"/>
<path d="M26.888 20.139C26.2942 20.5346 25.6677 20.9475 25.0076 21.3787C25.3037 21.5223 25.5395 21.7026 25.5622 21.9356C25.6042 22.3732 24.7249 22.5848 23.9302 22.4938C23.7712 22.4756 23.6151 22.4339 23.4663 22.3781C23.3012 22.4845 23.1346 22.5916 22.9655 22.7C22.7937 22.8104 22.585 22.9463 22.3467 23.1033V23.7314C22.5045 23.422 22.8495 23.1449 23.1172 23.1308C23.2325 23.1247 23.6329 23.4948 25.2831 23.4038C26.0839 23.3597 27.6309 22.5059 27.6067 21.5231C27.5921 20.9423 27.2888 20.4893 26.888 20.139ZM22.3463 21.6565V22.2964C22.4923 22.1989 22.6363 22.1031 22.7775 22.0096C22.5554 21.8551 22.3981 21.7107 22.3463 21.6565ZM26.3237 19.7374C26.17 19.6464 26.0143 19.5667 25.8651 19.4963C25.0885 19.1323 24.2756 19.0656 24.1057 18.5742C23.986 18.2276 24.3241 17.9068 25.1492 17.919C25.9743 17.9311 26.7387 18.4225 26.945 18.5984V17.0332C26.8843 17.0939 26.6182 17.3992 26.3747 17.3487C25.9076 17.2516 25.1128 17.125 24.2028 17.1303C23.1593 17.1363 22.2614 17.9428 22.2311 18.9625C22.1886 20.3882 23.3292 20.7764 23.9722 21.0009C24.0386 21.024 24.1142 21.0486 24.1963 21.0749C24.8131 20.6737 25.3009 20.3647 25.5864 20.2001C25.7781 20.0897 26.0293 19.9311 26.3237 19.7374Z" fill="black"/>
</svg>
