<svg width="62" height="40" viewBox="0 0 62 40" fill="none" xmlns="http://www.w3.org/2000/svg">
<path d="M54.7677 27.0278C54.7677 27.4375 55.0077 27.6432 55.4878 27.6432H57.0038C57.621 27.6432 58.065 27.7641 58.3357 28.006C58.6046 28.246 58.7399 28.6593 58.7399 29.2422C58.7399 29.8305 58.5865 30.2601 58.2779 30.5308C57.9693 30.8015 57.4893 30.9368 56.8377 30.9368H53.7896V29.928H56.6555C56.9695 29.928 57.1951 29.8811 57.334 29.7872C57.473 29.6916 57.5434 29.5273 57.5434 29.2891C57.5434 29.0437 57.4802 28.8722 57.3521 28.7784C57.2276 28.6827 57.02 28.6358 56.7313 28.6358H55.3813C54.7551 28.6358 54.2967 28.5059 54.0061 28.246C53.7156 27.9861 53.5694 27.5746 53.5694 27.0115C53.5694 26.4033 53.7246 25.9612 54.0332 25.6887C54.34 25.4144 54.8237 25.2772 55.4806 25.2772H58.4746V26.286H55.6466C55.0601 26.286 54.7677 26.5333 54.7677 27.0278ZM50.9922 29.9515H52.8727V30.9368H50.9381C50.5645 30.9368 50.2685 30.9116 50.052 30.8574C49.7596 30.7852 49.4889 30.6463 49.2416 30.4405C48.684 29.9785 48.406 29.235 48.406 28.2099C48.406 27.2065 48.6154 26.4665 49.0323 25.9919C49.4492 25.5154 50.0953 25.2772 50.9688 25.2772H52.8727V26.2644H50.9922C50.1783 26.2644 49.7488 26.7011 49.7036 27.58H52.8727V28.5654H49.6964C49.7 29.0689 49.8047 29.4263 50.0068 29.6356C50.209 29.8468 50.5374 29.9515 50.9922 29.9515ZM47.6174 25.2772V30.9368H46.419V25.2772H47.6174ZM44.0386 26.4214C43.8924 26.3312 43.6379 26.286 43.2734 26.286H41.8711V27.7136H43.2734C43.6325 27.7136 43.8924 27.663 44.0512 27.5638C44.21 27.4645 44.2894 27.275 44.2894 26.9971C44.2894 26.7174 44.2064 26.5261 44.0386 26.4214ZM44.3508 28.5726L45.708 30.9368H44.4194L43.221 28.7152H41.8711V30.9368H40.7269V25.2772H43.5477C44.1992 25.2772 44.6793 25.4144 44.9879 25.6887C45.2965 25.9612 45.4499 26.3925 45.4499 26.9809C45.4499 27.8796 45.0835 28.4102 44.3508 28.5726ZM38.406 26.2716V30.9368H37.2239V26.2716H35.4643V25.2862H40.1729V26.2716H38.406ZM31.2033 27.0278C31.2033 27.4375 31.4434 27.6432 31.9234 27.6432H33.4394C34.0566 27.6432 34.5006 27.7641 34.7713 28.006C35.042 28.246 35.1774 28.6593 35.1774 29.2422C35.1774 29.8305 35.0222 30.2601 34.7135 30.5308C34.4067 30.8015 33.9267 30.9368 33.2734 30.9368H30.2252V29.928H33.0911C33.4051 29.928 33.6307 29.8811 33.7697 29.7872C33.9086 29.6916 33.979 29.5273 33.979 29.2891C33.979 29.0437 33.9158 28.8722 33.7895 28.7784C33.6632 28.6827 33.4556 28.6358 33.1669 28.6358H31.8188C31.1907 28.6358 30.7323 28.5059 30.4417 28.246C30.1512 27.9861 30.0068 27.5746 30.0068 27.0115C30.0068 26.4033 30.1602 25.9612 30.4688 25.6887C30.7774 25.4144 31.2593 25.2772 31.9162 25.2772H34.9121V26.286H32.084C31.4975 26.286 31.2033 26.5333 31.2033 27.0278ZM28.8843 30.2204C28.4638 30.7401 27.7816 31 26.8359 31C25.892 31 25.2062 30.7401 24.7821 30.2204C24.5746 29.9623 24.4717 29.4552 24.4717 28.699V25.2772H25.6087V28.6665C25.6087 29.1826 25.6971 29.5472 25.874 29.7638C26.0508 29.9785 26.3721 30.0868 26.8359 30.0868C27.3015 30.0868 27.6209 29.9785 27.796 29.7638C27.9711 29.5472 28.0577 29.1826 28.0577 28.6665V25.2772H29.2019V28.699C29.2019 29.4497 29.0954 29.9569 28.8843 30.2204ZM22.158 26.665C21.9667 26.3979 21.6184 26.2644 21.1131 26.2644H19.7848V29.9515H21.1131C21.6184 29.9515 21.9667 29.8197 22.158 29.5544C22.3511 29.2891 22.4468 28.8073 22.4468 28.107C22.4468 27.414 22.3511 26.9339 22.158 26.665ZM22.8637 30.4405C22.6164 30.6463 22.3457 30.7852 22.0534 30.8574C21.835 30.9116 21.539 30.9368 21.1654 30.9368H18.6406V25.2772H21.1347C22.01 25.2772 22.6561 25.5154 23.073 25.9919C23.4899 26.4665 23.6975 27.2065 23.6975 28.2099C23.6975 29.235 23.4195 29.9785 22.8637 30.4405ZM16.2078 30.9368L13.8653 26.6578L13.9176 30.9368H12.7427V25.2772H14.1901L16.419 29.3451L16.3666 25.2772H17.5343V30.9368H16.2078ZM11.613 25.2772V30.9368H10.4146V25.2772H11.613ZM55.9624 16.6712C57.8628 17.4255 58.8121 18.6527 58.8121 20.3528C58.8121 21.6739 58.2508 22.6972 57.1247 23.4227C56.0003 24.15 54.4014 24.5127 52.3259 24.5127H41.8549V21.8327H50.4652C52.7338 21.8327 53.8672 21.1938 53.8672 19.9161C53.8672 18.6383 52.7338 17.9994 50.4652 17.9994H43.5134V15.3212H50.3479C52.6165 15.3212 53.7517 14.6968 53.7517 13.4479C53.7517 12.1846 52.6165 11.5529 50.3479 11.5529H41.8549V8.87291H51.8892C56.4858 8.87291 58.7832 10.2607 58.7832 13.0328C58.7832 14.4567 57.843 15.6695 55.9624 16.6712ZM33.3329 12.2062L24.8976 18.9794H33.3329V12.2062ZM37.7238 21.6594V24.5127H33.3329V21.6594H19.8949V18.6311L32.1689 8.85125H37.7238V18.9794H40.5753V21.6594H37.7238ZM15.0943 16.6712C16.9947 17.4255 17.9458 18.6527 17.9458 20.3528C17.9458 21.6739 17.3827 22.6972 16.2584 23.4227C15.134 24.15 13.5332 24.5127 11.4596 24.5127H0.988525V21.8327H9.59709C11.8656 21.8327 13.0008 21.1938 13.0008 19.9161C13.0008 18.6383 11.8656 17.9994 9.59709 17.9994H2.64527V15.3212H9.48159C11.7501 15.3212 12.8853 14.6968 12.8853 13.4479C12.8853 12.1846 11.7501 11.5529 9.48159 11.5529H0.988525V8.87291H11.0228C15.6177 8.87291 17.9169 10.2607 17.9169 13.0328C17.9169 14.4567 16.9766 15.6695 15.0943 16.6712ZM59.6342 25.4903H59.2462V25.281H60.2857V25.4903H59.8959V26.4811H59.6342V25.4903ZM60.4079 25.2794H60.7796L61.0864 26.2016L61.3932 25.2794H61.7632V26.4813H61.516L61.5358 25.5465L61.2272 26.4813H60.9583L60.6407 25.5356L60.6659 26.4813H60.4079V25.2794Z" fill="white"/>
</svg>
