<svg width="42" height="40" viewBox="0 0 42 40" fill="none" xmlns="http://www.w3.org/2000/svg">
<path d="M0.965698 31.5976V36.1381C0.965698 37.9817 2.22244 39.1568 4.05278 39.1568C5.97806 39.1568 7.1565 37.9176 7.1565 36.0137V31.5976H5.52695V35.9308C5.52695 36.9689 5.00415 37.6126 4.07015 37.6126C3.04653 37.6126 2.59529 36.8723 2.59529 36.0137V31.5976H0.965698ZM7.94878 31.6603V39.0827H10.5443C11.9818 39.0827 13.2033 38.3495 13.2033 36.8954C13.2033 35.3775 11.875 35.0411 11.875 35.0411C11.875 35.0411 12.8586 34.7679 12.8586 33.4693C12.8586 32.1715 11.6154 31.6603 10.5443 31.6603H7.94878ZM9.59054 33.0702H10.3784C10.9252 33.0702 11.2751 33.3582 11.2751 33.8593C11.2751 34.3076 10.9783 34.6458 10.4199 34.6458H9.59058V33.0702H9.59054ZM9.59054 35.8069H10.4613C11.2802 35.8069 11.5641 36.2275 11.5641 36.7295C11.5641 37.3136 11.1968 37.656 10.5443 37.656H9.59058V35.807L9.59054 35.8069ZM13.8201 31.6598H15.458V39.0822H13.8201V31.6598ZM31.6918 39.0822H30.0539V31.6598H35.1956V33.1941H31.6918V34.8941H34.8846V36.1381H31.6918V39.0822ZM35.7969 31.6598V33.1941H37.9116V39.0822H39.5703V33.1941H41.6435V31.6598H35.7969ZM17.3278 36.6142L16.0266 37.5655C16.0266 37.5655 16.4762 39.2099 18.7303 39.2099C20.2313 39.2099 21.3358 38.3339 21.3358 36.794C21.3358 34.3122 17.8656 34.8387 17.8656 33.5624C17.8656 33.2265 18.1643 32.9298 18.7156 32.9298C19.6001 32.9298 19.9362 33.7974 19.9362 33.7974L21.2377 32.884C21.2377 32.884 20.7294 31.5289 18.7809 31.5289C17.1796 31.5289 16.329 32.5562 16.329 33.6163C16.329 36.1454 19.6982 35.5965 19.6982 36.9238C19.6982 37.3717 19.3453 37.7008 18.7955 37.6971C17.7064 37.6971 17.3278 36.6142 17.3278 36.6142ZM25.5652 31.5255C23.6364 31.5255 22.7767 32.5725 22.7767 32.5725L23.0255 32.8213C23.0255 32.8213 21.7776 33.7077 21.7776 35.6111C21.7776 37.8014 23.4668 39.2083 25.5743 39.2083C28.023 39.2083 29.4125 37.4014 29.4125 35.3701C29.4125 33.204 27.8262 31.5255 25.5652 31.5255ZM25.6002 33.0662C26.908 33.0662 27.7564 34.0658 27.7564 35.3637C27.7564 36.6481 26.9181 37.6754 25.6002 37.6754C24.2981 37.6754 23.4427 36.7661 23.4427 35.5593C23.4427 34.461 24.1865 33.9823 24.1865 33.9823L23.917 33.7128C23.917 33.7128 24.4905 33.0662 25.6002 33.0662ZM20.5527 2C12.1406 2 8.50965 9.48765 8.50965 9.48765L9.57846 10.2528C9.57846 10.2528 8.23345 12.8106 8.27067 16.0913C8.27067 22.7885 13.6018 29.0973 21.4497 29.0973C28.5792 29.0973 34.4687 23.2943 34.4687 16.1078C34.4687 6.73486 27.2003 2 20.5528 2H20.5527ZM20.6257 4.28479C27.1981 4.28479 32.2981 9.58105 32.2981 15.7382C32.2981 22.2651 27.3891 26.8043 21.6686 26.8043C17.4586 26.8043 13.6607 23.5982 13.6607 19.2024C13.6607 16.6636 15.0101 14.8935 16.5223 13.9501L16.7436 14.1903C16.3298 14.5141 15.1498 16.4095 15.1498 18.2725C15.1498 21.731 17.8619 24.1263 21.279 24.1263C25.6318 24.1263 28.5348 20.4138 28.5348 16.1031C28.5348 11.0877 24.1077 6.82972 18.78 6.82972C15.8332 6.82972 13.3322 8.097 11.895 9.21576L11.6714 9.01331C13.5515 6.11432 16.8075 4.28479 20.6257 4.28479ZM18.6646 9.08275C22.0645 9.08275 25.3838 11.3319 26.2123 14.5245L25.911 14.6387C24.4234 12.6742 21.9857 11.0462 19.1072 11.0462C13.8105 11.0462 11.0287 15.8593 11.4371 19.8793L11.1252 19.9935C11.1252 19.9935 10.5402 18.7026 10.5402 17.1719C10.5402 12.7392 14.1803 9.08271 18.6646 9.08271V9.08275ZM20.9118 14.6458C22.5214 14.6458 23.8087 15.9504 23.8087 17.4992C23.8087 18.7808 22.9858 19.5403 22.9858 19.5403L23.9605 20.2218C23.9605 20.2218 22.994 21.7391 21.0212 21.7391C19.1341 21.7391 17.4652 20.216 17.4652 18.1677C17.4652 16.0572 19.2806 14.6458 20.9118 14.6458H20.9118Z" fill="white"/>
</svg>
